<?xml version="1.0" standalone="no"?>
<!DOCTYPE svg PUBLIC "-//W3C//DTD SVG 20010904//EN"
 "http://www.w3.org/TR/2001/REC-SVG-20010904/DTD/svg10.dtd">
<svg version="1.0" xmlns="http://www.w3.org/2000/svg"
 width="16.000000pt" height="16.000000pt" viewBox="0 0 16.000000 16.000000"
 preserveAspectRatio="xMidYMid meet">

<g transform="translate(0.000000,16.000000) scale(0.100000,-0.100000)"
fill="#000000" stroke="none">
<path d="M54 142 c-12 -2 -24 -11 -27 -20 -3 -9 -8 -24 -11 -33 -4 -10 0 -23
9 -33 9 -9 13 -16 9 -16 -3 0 -1 -7 6 -15 16 -19 64 -20 79 -1 9 11 7 15 -9
19 -21 5 -28 27 -9 27 5 0 7 -4 4 -10 -3 -5 -1 -10 4 -10 6 0 11 5 11 11 0 6
7 9 15 5 16 -6 19 3 9 28 -3 8 -12 12 -21 9 -12 -5 -12 -7 -1 -14 8 -5 -8 -9
-42 -9 -36 0 -50 3 -41 9 8 5 25 7 37 5 17 -3 22 0 18 10 -3 7 2 16 10 19 9 4
16 10 16 15 0 10 -26 11 -66 4z m26 -6 c0 -2 -8 -10 -17 -17 -16 -13 -17 -12
-4 4 13 16 21 21 21 13z m-8 -105 c-4 -11 -7 -10 -13 5 -12 29 -10 36 5 22 7
-7 11 -19 8 -27z"/>
</g>
</svg>
